# xmcd CD database file
#
# Track frame offsets:
#	182
#	23747
#	47402
#	74700
#	103835
#	139532
#	169722
#	200160
#	230235
#	266375
#	296070
#
# Disc length: 4453 seconds
#
# Revision: 0
# Processed by: cddbd v1.5.2PL0 Copyright (c) Steve Scherf et al.
# Submitted via: CDex 1.51
#
DISCID=a711630b
DTITLE=Bob Dylan - Romantic Tales of Musketeers
DYEAR=1995
DGENRE=Blues
TTITLE0=Down In The Flood
TTITLE1=Senor
TTITLE2=All Along The Watchtower
TTITLE3=I Don't Believe In You
TTITLE4=Tombstone Blues
TTITLE5=Shelter From The Storm
TTITLE6=Mr. Tambourine Man
TTITLE7=The Lonsome Death Of Hattie Carrol
TTITLE8=Its All Over Now Baby Blue
TTITLE9=Highway 61
TTITLE10=In The Garden
EXTD=YEAR: 1995
EXTT0=
EXTT1=
EXTT2=
EXTT3=
EXTT4=
EXTT5=
EXTT6=
EXTT7=
EXTT8=
EXTT9=
EXTT10=
PLAYORDER=
